<?xml version="1.0" encoding="iso-8859-1"?>
<!-- Generator: Adobe Illustrator 19.0.0, SVG Export Plug-In . SVG Version: 6.00 Build 0)  -->
<svg version="1.1" id="Layer_1" xmlns="http://www.w3.org/2000/svg" xmlns:xlink="http://www.w3.org/1999/xlink" x="0px" y="0px"
	 viewBox="0 0 512 512" style="enable-background:new 0 0 512 512;" xml:space="preserve">
<g>
	<path style="fill:#FF9600;" d="M314.835,134.513l68.581-68.688c9.431-9.446,24.859-9.446,34.29-0.002l34.288,34.347
		c9.431,9.444,9.431,24.898,0,34.342l-68.577,68.692c-9.429,9.447-24.861,9.447-34.291,0l-34.289-34.346
		C305.405,159.415,305.405,143.959,314.835,134.513z"/>
	<path style="fill:#FF2C47;" d="M151.593,40.432l-19.602,19.632L31.945,160.273l0,0c-28.406,28.451-28.406,74.583,0.002,103.035
		l-0.002,0.002l154.258,154.512l0.125-0.126c28.431,28.431,74.525,28.431,102.957,0l204.514-204.845
		c10.009-10.026,10.013-26.435,0-36.465l-41.806-41.873l-42.863,42.934l-25.714,25.76c-9.431,9.446-24.861,9.445-34.291,0
		l-34.286-34.348c-9.434-9.444-9.434-24.898,0-34.342l25.716-25.76l42.863-42.932l-41.806-41.872
		c-10.011-10.029-26.396-10.025-36.406,0.002L260.58,68.651L210.202,18.19c-10.015-10.028-26.396-10.031-36.404-0.002
		L151.593,40.432z"/>
</g>
<g>
	<path style="fill:#000003;" d="M501.347,168.847l-35.458-35.513c6.746-13.145,4.636-29.706-6.346-40.703l-34.289-34.346
		c-6.577-6.586-15.348-10.213-24.693-10.213c-5.652,0-11.088,1.334-15.961,3.84l-35.438-35.494
		C342.306,9.549,333.16,5.764,323.41,5.764c-9.75,0-18.896,3.783-25.755,10.652L260.58,53.551L217.749,10.65
		C210.89,3.782,201.745,0,191.995,0c-9.748,0-18.892,3.782-25.746,10.65L24.395,152.736c-32.446,32.498-32.509,85.338-0.188,117.917
		c0.063,0.065,0.125,0.129,0.188,0.193l154.258,154.512c0.498,0.498,1.04,0.942,1.617,1.328
		c15.585,14.846,35.936,22.998,57.537,22.998c22.293,0,43.254-8.682,59.025-24.452l204.516-204.847
		C515.532,206.176,515.532,183.056,501.347,168.847z M390.966,73.362c0.004-0.005,0.011-0.012,0.015-0.017
		c2.544-2.54,5.943-3.939,9.579-3.939c3.644,0,7.052,1.405,9.598,3.954l34.288,34.345c5.307,5.313,5.307,13.958,0,19.271
		l-29.979,30.028c-0.004,0.004-0.009,0.007-0.013,0.012c-0.004,0.004-0.009,0.01-0.013,0.014l-38.575,38.637
		c-2.544,2.549-5.952,3.954-9.596,3.954c-3.644,0-7.052-1.405-9.598-3.954l-24.483-24.524l-9.802-9.82
		c-5.305-5.313-5.305-13.958,0-19.273L390.966,73.362z M486.251,205.314L281.74,410.154c-11.735,11.734-27.338,18.198-43.934,18.198
		c-16.598,0-32.201-6.463-43.935-18.198c-0.471-0.469-0.973-0.886-1.5-1.249l-152.7-152.953c-0.059-0.061-0.116-0.122-0.177-0.18
		c-24.214-24.252-24.214-63.712-0.002-87.962L181.349,25.722c2.822-2.829,6.604-4.387,10.645-4.387c4.046,0,7.831,1.559,10.658,4.39
		l42.854,42.925L92.986,221.417c-0.004,0.003-0.009,0.006-0.013,0.01c-2.564,2.567-5.973,3.982-9.598,3.982
		c-3.622,0-7.031-1.414-9.596-3.982c-5.305-5.313-5.305-13.961,0-19.275c0.404-0.404,0.756-0.838,1.082-1.285l94.507-94.507
		c4.166-4.165,4.166-10.919,0-15.085c-4.164-4.165-10.916-4.165-15.086,0l-95.594,95.593c-0.494,0.495-0.925,1.028-1.302,1.587
		c-12.289,13.703-11.858,34.869,1.298,48.046c6.594,6.605,15.364,10.242,24.691,10.242c9.302,0,18.048-3.618,24.638-10.188
		c0.019-0.019,0.039-0.035,0.061-0.055L268.129,76.186l44.625-44.695c2.827-2.832,6.612-4.391,10.656-4.391
		c4.044,0,7.827,1.559,10.654,4.391l34.279,34.334L353.41,80.78l-22.454-22.49c-2.002-2.004-4.717-3.131-7.548-3.131
		c-2.833,0-5.548,1.126-7.548,3.131l-32.825,32.876c-4.162,4.169-4.158,10.923,0.011,15.085c2.083,2.079,4.811,3.118,7.537,3.118
		c2.731,0,5.465-1.044,7.548-3.131l25.277-25.315l14.931,14.953l-31.052,31.102c-13.602,13.623-13.602,35.793,0,49.42l16.148,16.174
		l18.142,18.175c6.577,6.586,15.346,10.213,24.693,10.213c9.346,0,18.116-3.628,24.693-10.215l31.027-31.079l14.929,14.954
		l-25.3,25.343c-4.162,4.169-4.157,10.923,0.013,15.085c2.081,2.079,4.809,3.118,7.536,3.118c2.734,0,5.467-1.044,7.55-3.131
		l32.823-32.879c4.156-4.164,4.156-10.908,0-15.072l-22.477-22.515l1.679-1.684l13.252-13.271l34.256,34.309
		C492.138,189.818,492.138,199.417,486.251,205.314z"/>
	<path style="fill:#000003;" d="M383.416,168.858c9.467-9.484,9.467-24.862,0-34.345c-9.469-9.484-24.821-9.484-34.291,0
		c-9.467,9.484-9.467,24.862,0,34.345C358.595,178.341,373.947,178.341,383.416,168.858z"/>
	<path style="fill:#000003;" d="M250.212,124.043l-32.827,32.878c-4.162,4.169-4.156,10.923,0.013,15.085
		c2.081,2.079,4.809,3.118,7.535,3.118c2.734,0,5.467-1.044,7.548-3.131l32.827-32.878c4.162-4.169,4.156-10.923-0.013-15.085
		C261.126,119.869,254.372,119.873,250.212,124.043z"/>
	<path style="fill:#000003;" d="M184.562,189.798l-32.827,32.878c-4.16,4.169-4.156,10.923,0.013,15.085
		c2.083,2.079,4.811,3.118,7.537,3.118c2.732,0,5.465-1.044,7.548-3.131l32.827-32.878c4.16-4.169,4.156-10.923-0.013-15.085
		C195.478,185.623,188.724,185.629,184.562,189.798z"/>
	<path style="fill:#000003;" d="M378.795,252.836l-32.825,32.878c-4.16,4.17-4.156,10.923,0.013,15.085
		c2.083,2.079,4.811,3.118,7.537,3.118c2.731,0,5.465-1.044,7.548-3.131l32.825-32.878c4.162-4.17,4.157-10.923-0.013-15.085
		C389.714,248.662,382.96,248.668,378.795,252.836z"/>
	<path style="fill:#000003;" d="M313.143,318.593L280.32,351.47c-4.16,4.169-4.157,10.923,0.013,15.085
		c2.083,2.079,4.811,3.118,7.537,3.118c2.731,0,5.465-1.043,7.548-3.131l32.822-32.878c4.162-4.169,4.156-10.923-0.013-15.085
		C324.059,314.418,317.305,314.423,313.143,318.593z"/>
	<path style="fill:#000003;" d="M362.641,490.667H149.307c-5.891,0-10.667,4.775-10.667,10.667c0,5.891,4.775,10.667,10.667,10.667
		h213.333c5.889,0,10.667-4.775,10.667-10.667C373.307,495.443,368.53,490.667,362.641,490.667z"/>
	<path style="fill:#000003;" d="M187.072,84.238c2.731,0,5.46-1.041,7.543-3.124l4.921-4.922c4.166-4.165,4.166-10.919,0-15.086
		c-4.166-4.165-10.918-4.165-15.086,0l-4.921,4.922c-4.166,4.165-4.166,10.919,0,15.086
		C181.613,83.197,184.343,84.238,187.072,84.238z"/>
</g>
<g>
</g>
<g>
</g>
<g>
</g>
<g>
</g>
<g>
</g>
<g>
</g>
<g>
</g>
<g>
</g>
<g>
</g>
<g>
</g>
<g>
</g>
<g>
</g>
<g>
</g>
<g>
</g>
<g>
</g>
</svg>
