<?xml version="1.0" encoding="iso-8859-1"?>
<!-- Generator: Adobe Illustrator 19.0.0, SVG Export Plug-In . SVG Version: 6.00 Build 0)  -->
<svg xmlns="http://www.w3.org/2000/svg" xmlns:xlink="http://www.w3.org/1999/xlink" version="1.1" id="Layer_1" x="0px" y="0px" viewBox="0 0 512 512" style="enable-background:new 0 0 512 512;" xml:space="preserve" width="512px" height="512px">
<g>
	<g>
		<g>
			<path d="M501.348,168.849l-35.457-35.515c6.742-13.145,4.631-29.706-6.347-40.701l-34.29-34.347     c-6.576-6.587-15.346-10.213-24.691-10.213c-5.654,0-11.09,1.334-15.963,3.84l-35.438-35.494     c-6.858-6.87-16.002-10.653-25.751-10.653c-9.748,0-18.895,3.782-25.755,10.652l-37.077,37.135l-42.83-42.902     C210.892,3.782,201.746,0,191.998,0c-9.748,0-18.892,3.782-25.748,10.649L24.396,152.736     c-32.444,32.495-32.512,85.323-0.204,117.901c0.067,0.069,0.133,0.139,0.202,0.207l154.259,154.513     c0.497,0.498,1.038,0.942,1.614,1.327c15.585,14.849,35.935,23.001,57.539,23.001c22.295,0,43.257-8.684,59.028-24.454     l204.515-204.846C515.535,206.18,515.534,183.06,501.348,168.849z M390.938,73.388l0.029-0.028     c2.545-2.55,5.952-3.954,9.596-3.954c3.643,0,7.05,1.404,9.595,3.953l34.29,34.347c5.305,5.312,5.303,13.958,0.001,19.271     l-29.975,30.021c-0.006,0.006-0.014,0.012-0.021,0.019c-0.006,0.007-0.013,0.015-0.02,0.022l-38.565,38.627     c-2.546,2.549-5.954,3.953-9.596,3.953c-3.644,0-7.051-1.404-9.596-3.953l-15.229-15.252l-19.06-19.093     c-5.307-5.312-5.307-13.955,0.002-19.27L390.938,73.388z M486.254,205.313l-204.51,204.841     c-11.737,11.737-27.34,18.201-43.937,18.201s-32.201-6.464-43.937-18.201c-0.462-0.462-0.961-0.876-1.49-1.241L39.68,255.961     c-0.061-0.065-0.123-0.128-0.186-0.191c-24.213-24.251-24.213-63.71,0-87.961L181.348,25.722c2.825-2.83,6.606-4.388,10.65-4.388     c4.044,0,7.827,1.56,10.654,4.39l42.854,42.927L92.999,221.406c-0.006,0.006-0.015,0.013-0.021,0.019     c-2.566,2.569-5.975,3.983-9.6,3.983h-0.002c-3.623,0-7.033-1.414-9.596-3.982c-5.306-5.313-5.306-13.959,0-19.273     c0.404-0.404,0.756-0.841,1.083-1.289l94.508-94.505c4.164-4.165,4.165-10.919,0-15.085c-4.165-4.165-10.918-4.165-15.086-0.001     l-95.595,95.593c-0.493,0.493-0.924,1.025-1.3,1.583c-12.293,13.702-11.862,34.87,1.294,48.048     c6.594,6.605,15.363,10.242,24.692,10.242c0,0,0.001,0,0.003,0c9.31,0,18.063-3.623,24.653-10.203     c0.014-0.014,0.028-0.025,0.043-0.038L268.127,76.187l44.625-44.695c2.828-2.832,6.613-4.393,10.658-4.393     c4.044,0,7.827,1.559,10.654,4.391l34.279,34.334L353.411,80.78l-22.456-22.493c-2.001-2.004-4.717-3.131-7.549-3.131     s-5.548,1.126-7.549,3.131l-32.823,32.877c-4.162,4.17-4.156,10.923,0.013,15.085c2.082,2.079,4.809,3.118,7.535,3.118     c2.734,0,5.467-1.044,7.549-3.131l25.275-25.316l14.93,14.956l-31.05,31.1c-13.604,13.623-13.604,35.793,0,49.419l19.615,19.646     l14.676,14.702c6.576,6.586,15.346,10.213,24.692,10.213s18.114-3.627,24.694-10.214l31.026-31.076l14.929,14.954l-25.302,25.339     c-4.161,4.169-4.156,10.923,0.013,15.086c2.082,2.079,4.81,3.118,7.536,3.118c2.733,0,5.466-1.044,7.549-3.13l32.825-32.876     c4.158-4.164,4.158-10.909,0-15.073l-22.478-22.514l14.932-14.957l34.254,34.309C492.139,189.82,492.14,199.418,486.254,205.313z     " fill="#FFFFFF"/>
			<path d="M383.415,168.859c9.471-9.487,9.471-24.862,0-34.345c-9.468-9.485-24.82-9.485-34.288,0     c-9.469,9.484-9.469,24.859,0,34.345C358.594,178.344,373.946,178.344,383.415,168.859z" fill="#FFFFFF"/>
			<path d="M250.21,124.045l-32.825,32.877c-4.162,4.17-4.156,10.923,0.013,15.085c2.083,2.079,4.81,3.118,7.537,3.118     c2.732,0,5.466-1.044,7.549-3.131l32.822-32.877c4.162-4.17,4.156-10.923-0.013-15.085     C261.125,119.871,254.371,119.875,250.21,124.045z" fill="#FFFFFF"/>
			<path d="M184.563,189.797l-32.827,32.881c-4.161,4.169-4.156,10.923,0.014,15.085c2.082,2.079,4.81,3.118,7.536,3.118     c2.733,0,5.465-1.044,7.548-3.131l32.827-32.881c4.161-4.169,4.156-10.923-0.014-15.085     C195.479,185.622,188.725,185.629,184.563,189.797z" fill="#FFFFFF"/>
			<path d="M378.796,252.838l-32.825,32.876c-4.162,4.169-4.158,10.922,0.011,15.085c2.082,2.079,4.811,3.119,7.537,3.119     c2.732,0,5.464-1.044,7.548-3.131l32.825-32.875c4.162-4.169,4.158-10.922-0.011-15.085     C389.713,248.665,382.959,248.669,378.796,252.838z" fill="#FFFFFF"/>
			<path d="M313.147,318.595l-32.823,32.875c-4.162,4.169-4.157,10.923,0.012,15.085c2.082,2.079,4.81,3.119,7.536,3.119     c2.733,0,5.464-1.044,7.548-3.131l32.825-32.875c4.162-4.169,4.156-10.923-0.013-15.085     C324.063,314.421,317.31,314.426,313.147,318.595z" fill="#FFFFFF"/>
			<path d="M362.642,490.667H149.309c-5.89,0-10.667,4.777-10.667,10.667S143.419,512,149.309,512h213.333     c5.891,0,10.667-4.776,10.667-10.667S368.533,490.667,362.642,490.667z" fill="#FFFFFF"/>
			<path d="M187.074,84.238c2.731,0,5.461-1.042,7.544-3.126l4.919-4.923c4.164-4.167,4.161-10.921-0.005-15.085     c-4.166-4.163-10.919-4.162-15.085,0.004l-4.919,4.923c-4.164,4.167-4.162,10.921,0.004,15.085     C181.617,83.197,184.347,84.238,187.074,84.238z" fill="#FFFFFF"/>
		</g>
	</g>
</g>
<g>
</g>
<g>
</g>
<g>
</g>
<g>
</g>
<g>
</g>
<g>
</g>
<g>
</g>
<g>
</g>
<g>
</g>
<g>
</g>
<g>
</g>
<g>
</g>
<g>
</g>
<g>
</g>
<g>
</g>
</svg>
